<?xml version="1.0" encoding="UTF-8" standalone="no"?>
<svg
   height="329pt"
   viewBox="0 0 329.26933 329"
   fill="#000000"
   width="329pt"
   version="1.1"
   id="svg4"
   sodipodi:docname="close.svg"
   inkscape:version="1.1 (c68e22c387, 2021-05-23)"
   xmlns:inkscape="http://www.inkscape.org/namespaces/inkscape"
   xmlns:sodipodi="http://sodipodi.sourceforge.net/DTD/sodipodi-0.dtd"
   xmlns="http://www.w3.org/2000/svg"
   xmlns:svg="http://www.w3.org/2000/svg">
  <defs
     id="defs8" />
  <sodipodi:namedview
     id="namedview6"
     pagecolor="#ffffff"
     bordercolor="#666666"
     borderopacity="1.0"
     inkscape:pageshadow="2"
     inkscape:pageopacity="0.0"
     inkscape:pagecheckerboard="0"
     inkscape:document-units="pt"
     showgrid="false"
     inkscape:zoom="1.7165653"
     inkscape:cx="219.33333"
     inkscape:cy="219.33333"
     inkscape:window-width="2160"
     inkscape:window-height="1387"
     inkscape:window-x="-8"
     inkscape:window-y="-8"
     inkscape:window-maximized="1"
     inkscape:current-layer="svg4" />
  <path
     d="m 180.85937,164.7684 68.95746,-68.959557 c 4.48763,-4.485533 4.48763,-11.73802 0,-16.223554 -4.48554,-4.485534 -11.73802,-4.485534 -16.22355,0 L 164.63372,148.54485 95.676256,79.585289 c -4.487634,-4.485534 -11.73802,-4.485534 -16.223554,0 -4.487634,4.485534 -4.487634,11.738021 0,16.223554 L 148.41016,164.7684 79.452702,233.72796 c -4.487634,4.48553 -4.487634,11.73803 0,16.22356 2.235413,2.23751 5.174646,3.36152 8.111778,3.36152 2.937131,0 5.874263,-1.12401 8.111776,-3.36152 l 68.957464,-68.95956 68.95956,68.95956 c 2.23751,2.23751 5.17464,3.36152 8.11177,3.36152 2.93713,0 5.87427,-1.12401 8.11178,-3.36152 4.48763,-4.48553 4.48763,-11.73803 0,-16.22356 z m 0,0"
     id="path2"
     style="stroke-width:0.537844" />
</svg>
